<?xml version="1.0" encoding="utf-8"?>
<svg xmlns="http://www.w3.org/2000/svg" xmlns:xlink="http://www.w3.org/1999/xlink">
  <symbol id="githab" viewBox="0 0 32 32">
    <path fill-rule="evenodd" clip-rule="evenodd" d="M0 16C0 7.16344 7.16344 0 16 0C24.8366 0 32 7.16344 32 16C32 24.8366 24.8366 32 16 32C7.16344 32 0 24.8366 0 16ZM8 16.1675C8 11.7639 11.5718 8.192 15.9755 8.192C20.3792 8.192 23.951 11.7639 24 16.1675C24 19.6905 21.7492 22.6752 18.5688 23.7516C18.1774 23.8006 18.0306 23.5559 18.0306 23.3602V21.1584C18.0306 20.4244 17.7859 19.9351 17.4924 19.6905C19.2538 19.4948 21.1132 18.8587 21.1132 15.7761C21.1132 14.8954 20.7706 14.1614 20.2814 13.6232C20.2852 13.6078 20.2906 13.5885 20.297 13.5655C20.3719 13.2953 20.5892 12.5111 20.1835 11.5192C20.1835 11.5192 19.4985 11.3235 17.9816 12.351C17.3456 12.2042 16.6605 12.1064 15.9755 12.1064C15.2905 12.1064 14.6055 12.1553 13.9694 12.351C12.4526 11.3235 11.7676 11.5192 11.7676 11.5192C11.3351 12.5763 11.6105 13.3975 11.6669 13.5657L11.6697 13.5743C11.1315 14.1614 10.8379 14.8464 10.8379 15.7272C10.8379 18.8097 12.6973 19.4948 14.4587 19.6905C14.263 19.8862 14.0184 20.2287 13.9694 20.7669C13.5291 20.9626 12.4037 21.3052 11.6697 20.0819C11.6697 20.0819 11.2294 19.299 10.4465 19.2501C10.4465 19.2501 9.66364 19.2501 10.3976 19.7394C10.3976 19.7394 10.9358 19.9841 11.2783 20.9137C11.2783 20.9137 11.7676 22.4795 13.9694 21.9902V23.3602C13.9694 23.5559 13.8226 23.8006 13.4312 23.7516C10.2997 22.6752 8 19.6905 8 16.1675Z"/>
  </symbol>
  <symbol id="telegram" viewBox="0 0 32 32">
    <path fill-rule="evenodd" clip-rule="evenodd" d="M16 32C7.16344 32 0 24.8366 0 16C0 7.16344 7.16344 0 16 0C24.8366 0 32 7.16344 32 16C32 24.8366 24.8366 32 16 32ZM16.6919 12.0074C15.2589 12.6034 12.3949 13.8371 8.09992 15.7083C7.40248 15.9856 7.03714 16.257 7.00388 16.5223C6.94767 16.9706 7.50915 17.1472 8.27374 17.3876C8.37774 17.4203 8.4855 17.4542 8.59598 17.4901C9.34822 17.7346 10.3601 18.0207 10.8862 18.0321C11.3633 18.0424 11.8959 17.8457 12.4839 17.4419C16.4968 14.7331 18.5683 13.3639 18.6983 13.3344C18.7901 13.3136 18.9172 13.2874 19.0034 13.3639C19.0895 13.4405 19.0811 13.5855 19.0719 13.6244C19.0163 13.8615 16.8123 15.9106 15.6717 16.971C15.3161 17.3015 15.0639 17.536 15.0124 17.5896C14.8969 17.7096 14.7791 17.823 14.666 17.9321C13.9672 18.6058 13.4431 19.111 14.695 19.936C15.2967 20.3325 15.7781 20.6603 16.2584 20.9874C16.7829 21.3446 17.306 21.7009 17.9829 22.1446C18.1554 22.2576 18.3201 22.375 18.4805 22.4894C19.0909 22.9246 19.6393 23.3155 20.3168 23.2532C20.7105 23.217 21.1172 22.8468 21.3237 21.7427C21.8118 19.1335 22.7712 13.4801 22.9929 11.1505C23.0123 10.9464 22.9879 10.6851 22.9683 10.5705C22.9486 10.4558 22.9076 10.2924 22.7586 10.1715C22.582 10.0283 22.3095 9.99805 22.1877 10.0001C21.6335 10.01 20.7834 10.3056 16.6919 12.0074Z"/>
  </symbol>
  <symbol id="vk" viewBox="0 0 32 32">
    <path d="M10.6987 12.8693C10.784 17.0293 12.864 19.5253 16.512 19.5253H16.7253V17.1467C18.064 17.28 19.0773 18.2613 19.4827 19.5253H21.376C21.1818 18.8071 20.8376 18.1381 20.366 17.5626C19.8943 16.9872 19.3061 16.5182 18.64 16.1866C19.2369 15.8232 19.7524 15.3405 20.1543 14.7688C20.5563 14.1971 20.836 13.5487 20.976 12.864H19.2587C18.8853 14.1866 17.776 15.3867 16.7253 15.4986V12.8693H15.0027V17.4773C13.936 17.2106 12.592 15.92 12.5333 12.8693H10.6987Z" />
    <path fill-rule="evenodd" clip-rule="evenodd" d="M16 0C24.8366 0 32 7.16344 32 16C32 24.8366 24.8366 32 16 32C7.16344 32 0 24.8366 0 16C0 7.16344 7.16344 0 16 0ZM8 15.68C8 12.0587 8 10.2507 9.12 9.12C10.256 8 12.064 8 15.68 8H16.32C19.9413 8 21.7493 8 22.88 9.12C24 10.256 24 12.064 24 15.68V16.32C24 19.9413 24 21.7493 22.88 22.88C21.744 24 19.936 24 16.32 24H15.68C12.0587 24 10.2507 24 9.12 22.88C8 21.744 8 19.936 8 16.32V15.68Z"/>
  </symbol>
</svg>
