<?xml version="1.0" encoding="utf-8"?>
<svg xmlns="http://www.w3.org/2000/svg" xmlns:xlink="http://www.w3.org/1999/xlink">
  <symbol id="clipboard" viewBox="0 0 606.816 606.816">
    <g>
	    <g>
		    <g>
			  <path d="M477.884,79.917h-50.825c-11.908-7.781-24.874-13.455-36.857-17.557c-5.595-14.695-14.537-27.921-26.047-38.28
				C347.263,8.875,325.688,0.5,303.408,0.5c-22.281,0-43.854,8.374-60.747,23.581c-11.509,10.36-20.452,23.586-26.046,38.28
				c-11.984,4.102-24.949,9.776-36.857,17.557h-50.825c-32.058,0-58.14,26.082-58.14,58.14v410.118
				c0,32.059,26.082,58.141,58.14,58.141h348.951c32.058,0,58.14-26.082,58.14-58.141V138.057
				C536.023,105.999,509.941,79.917,477.884,79.917z M253.876,87.36c0.491-2.551,1.149-5.034,1.947-7.442
				c7.067-21.335,25.7-36.578,47.585-36.578c21.885,0,40.518,15.243,47.585,36.578c0.798,2.409,1.456,4.891,1.947,7.442
				c1.117,5.81,5.572,10.378,11.294,11.885c20.769,5.473,37.699,13.664,48.5,23.512c1.703,1.553,3.259,3.146,4.648,4.777
				c6.852,8.046,1.201,20.417-9.367,20.417H198.801c-10.568,0-16.218-12.37-9.367-20.417c1.389-1.632,2.945-3.224,4.648-4.777
				c10.801-9.849,27.732-18.04,48.5-23.512C248.304,97.737,252.758,93.169,253.876,87.36z M493.184,548.176
				c0,8.451-6.851,15.301-15.3,15.301h-348.95c-8.45,0-15.3-6.85-15.3-15.301V138.057c0-8.45,6.85-15.3,15.3-15.3h16.175
				c-0.507,2.123-0.894,4.28-1.147,6.468c-1.164,10.078,0.478,20.292,4.75,29.538c4.262,9.227,10.955,17.082,19.354,22.717
				c9.08,6.091,19.708,9.311,30.735,9.311h209.215c11.027,0,21.655-3.22,30.734-9.312c8.4-5.635,15.094-13.491,19.355-22.717
				c4.271-9.246,5.913-19.46,4.75-29.538c-0.253-2.187-0.641-4.344-1.147-6.467h16.175c8.45,0,15.3,6.85,15.3,15.3V548.176
				L493.184,548.176z"/>
			<path d="M477.884,606.816H128.933c-32.334,0-58.64-26.306-58.64-58.641V138.058c0-32.334,26.306-58.64,58.64-58.64h50.676
				c10.493-6.839,22.812-12.71,36.622-17.454c5.656-14.751,14.676-27.976,26.096-38.255C259.312,8.42,281.004,0,303.408,0
				s44.097,8.42,61.081,23.709c11.419,10.278,20.439,23.502,26.096,38.255c13.813,4.746,26.133,10.617,36.622,17.454h50.677
				c32.334,0,58.64,26.306,58.64,58.64v410.119C536.523,580.511,510.218,606.816,477.884,606.816z M128.933,80.418
				c-31.783,0-57.64,25.857-57.64,57.64v410.118c0,31.783,25.857,57.641,57.64,57.641h348.951c31.782,0,57.64-25.857,57.64-57.641
				V138.057c0-31.783-25.857-57.64-57.64-57.64H426.91l-0.125-0.082c-10.503-6.863-22.865-12.751-36.746-17.502l-0.222-0.076
				l-0.083-0.219c-5.595-14.693-14.556-27.863-25.915-38.086C347.02,9.329,325.565,1,303.408,1s-43.612,8.329-60.412,23.452
				c-11.359,10.225-20.32,23.395-25.914,38.086l-0.083,0.219l-0.222,0.076c-13.877,4.749-26.24,10.638-36.746,17.502l-0.125,0.082
				H128.933z M477.884,563.977h-348.95c-8.712,0-15.8-7.088-15.8-15.801V138.057c0-8.712,7.088-15.8,15.8-15.8h16.809l-0.147,0.616
				c-0.509,2.132-0.892,4.289-1.137,6.409c-1.153,9.987,0.474,20.108,4.708,29.27c4.223,9.144,10.855,16.928,19.179,22.512
				c8.997,6.036,19.528,9.226,30.457,9.226h209.215c10.928,0,21.46-3.19,30.456-9.227c8.324-5.584,14.957-13.369,19.18-22.512
				c4.232-9.162,5.86-19.283,4.707-29.271c-0.245-2.118-0.627-4.274-1.137-6.408l-0.147-0.616h16.809c8.712,0,15.8,7.088,15.8,15.8
				v410.119C493.684,556.889,486.596,563.977,477.884,563.977z M128.934,123.257c-8.161,0-14.8,6.639-14.8,14.8v410.119
				c0,8.161,6.639,14.801,14.8,14.801h348.95c8.161,0,14.8-6.64,14.8-14.801V138.057c0-8.161-6.639-14.8-14.8-14.8h-15.545
				c0.447,1.971,0.788,3.956,1.015,5.909c1.174,10.171-0.483,20.478-4.793,29.805c-4.301,9.31-11.054,17.236-19.531,22.923
				c-9.161,6.147-19.886,9.396-31.013,9.396H198.802c-11.127,0-21.852-3.249-31.014-9.396c-8.477-5.687-15.23-13.613-19.53-22.923
				c-4.31-9.329-5.967-19.635-4.792-29.804c0.226-1.956,0.567-3.941,1.014-5.911H128.934z M408.016,148.451H198.801
				c-5.066,0-9.531-2.852-11.652-7.444c-2.135-4.622-1.406-9.909,1.904-13.797c1.375-1.614,2.953-3.237,4.692-4.822
				c10.89-9.929,27.733-18.099,48.71-23.626c5.579-1.471,9.87-5.983,10.931-11.496c0.482-2.502,1.143-5.027,1.963-7.505
				c7.315-22.083,26.629-36.92,48.06-36.92s40.744,14.837,48.06,36.92c0.821,2.48,1.482,5.006,1.964,7.505
				c1.061,5.514,5.351,10.026,10.93,11.497c20.979,5.528,37.822,13.698,48.71,23.626c1.736,1.583,3.314,3.205,4.692,4.822
				c3.311,3.888,4.04,9.174,1.905,13.796C417.548,145.598,413.082,148.451,408.016,148.451z M303.408,43.84
				c-20.999,0-39.931,14.562-47.11,36.235c-0.807,2.437-1.457,4.92-1.93,7.38c-1.134,5.888-5.709,10.706-11.658,12.274
				c-20.821,5.486-37.52,13.577-48.291,23.398c-1.708,1.557-3.257,3.149-4.604,4.731c-3.055,3.587-3.728,8.465-1.758,12.729
				c1.956,4.233,6.073,6.863,10.745,6.863h209.215c4.672,0,8.79-2.63,10.745-6.864c1.97-4.264,1.296-9.142-1.759-12.729
				c-1.35-1.585-2.899-3.177-4.604-4.731c-10.769-9.82-27.468-17.911-48.29-23.398c-5.949-1.567-10.525-6.385-11.658-12.274
				c-0.473-2.457-1.122-4.939-1.931-7.379C343.339,58.401,324.407,43.84,303.408,43.84z"/>
		</g>
		<g>
			<path d="M303.408,109.265c11.941,0,21.622-9.68,21.622-21.622c0-2.723-0.509-5.326-1.427-7.726
				c-3.111-8.125-10.978-13.896-20.196-13.896c-9.218,0-17.084,5.771-20.194,13.896c-0.918,2.399-1.427,5.003-1.427,7.726
				C281.787,99.585,291.467,109.265,303.408,109.265z"/>
			<path d="M303.408,109.765c-12.197,0-22.121-9.924-22.123-22.122c0-2.713,0.491-5.373,1.46-7.904
				c3.255-8.504,11.558-14.217,20.661-14.217c9.103,0,17.406,5.713,20.663,14.217c0.969,2.532,1.46,5.191,1.46,7.904
				C325.53,99.841,315.606,109.765,303.408,109.765z M303.407,66.521c-8.691,0-16.619,5.455-19.728,13.575
				c-0.925,2.417-1.394,4.956-1.394,7.547c0.001,11.646,9.477,21.122,21.123,21.122c11.646,0,21.122-9.475,21.122-21.122
				c0-2.59-0.469-5.129-1.394-7.547C320.027,71.977,312.099,66.521,303.407,66.521z"/>
		</g>
		<g>
			<path d="M187.724,278.191H296.66c11.83,0,21.42-9.59,21.42-21.42c0-11.83-9.591-21.42-21.42-21.42H187.724
				c-11.83,0-21.42,9.59-21.42,21.42C166.304,268.601,175.894,278.191,187.724,278.191z"/>
			<path d="M296.66,278.691H187.724c-12.087,0-21.92-9.833-21.92-21.92s9.833-21.92,21.92-21.92H296.66
				c12.087,0,21.92,9.833,21.92,21.92S308.747,278.691,296.66,278.691z M187.724,235.851c-11.535,0-20.92,9.385-20.92,20.92
				c0,11.535,9.385,20.92,20.92,20.92H296.66c11.536,0,20.92-9.385,20.92-20.92c0-11.536-9.385-20.92-20.92-20.92H187.724z"/>
		</g>
		<g>
			<path d="M419.094,350.871h-231.37c-11.83,0-21.42,9.59-21.42,21.42s9.59,21.42,21.42,21.42h231.37
				c11.83,0,21.42-9.59,21.42-21.42S430.924,350.871,419.094,350.871z"/>
			<path d="M419.094,394.211h-231.37c-12.087,0-21.92-9.833-21.92-21.92s9.833-21.92,21.92-21.92h231.37
				c12.087,0,21.92,9.833,21.92,21.92S431.181,394.211,419.094,394.211z M187.724,351.371c-11.535,0-20.92,9.385-20.92,20.92
				s9.385,20.92,20.92,20.92h231.37c11.535,0,20.92-9.385,20.92-20.92s-9.385-20.92-20.92-20.92H187.724z"/>
		</g>
		<g>
			<path d="M352.891,466.855H187.724c-11.83,0-21.42,9.59-21.42,21.42s9.59,21.42,21.42,21.42h165.167
				c11.83,0,21.42-9.59,21.42-21.42S364.721,466.855,352.891,466.855z"/>
			<path d="M352.891,510.195H187.724c-12.087,0-21.92-9.833-21.92-21.92s9.833-21.92,21.92-21.92h165.167
				c12.087,0,21.92,9.833,21.92,21.92S364.978,510.195,352.891,510.195z M187.724,467.355c-11.535,0-20.92,9.385-20.92,20.92
				s9.385,20.92,20.92,20.92h165.167c11.535,0,20.92-9.385,20.92-20.92s-9.385-20.92-20.92-20.92H187.724z"/>
		</g>
	</g>
</g>
  </symbol>
	<symbol id="edit" viewBox="0 0 24 24">
    <path fill-rule="evenodd" clip-rule="evenodd" d="M4 7C4 4.23858 6.23858 2 9 2H13C13.2652 2 13.5196 2.10536 13.7071 2.29289L19.7071 8.29289C19.8946 8.48043 20 8.73478 20 9V17C20 19.7614 17.7614 22 15 22H13C12.4477 22 12 21.5523 12 21C12 20.4477 12.4477 20 13 20H15C16.6569 20 18 18.6569 18 17V10H15C13.3431 10 12 8.65685 12 7V4H9C7.34315 4 6 5.34315 6 7V12C6 12.5523 5.55228 13 5 13C4.44772 13 4 12.5523 4 12V7ZM14 5.41421L16.5858 8H15C14.4477 8 14 7.55228 14 7V5.41421ZM10.1842 11.6189C11.0094 10.7937 12.3473 10.7937 13.1725 11.6189L14.3811 12.8275C15.2063 13.6527 15.2063 14.9906 14.3811 15.8158L8.48977 21.7071C8.30223 21.8946 8.04788 22 7.78266 22H5C4.44772 22 4 21.5523 4 21V18.2173C4 17.9521 4.10536 17.6978 4.29289 17.5102L10.1842 11.6189ZM11.7583 13.0331C11.7142 12.989 11.6426 12.989 11.5984 13.0331L10.423 14.2085L11.7914 15.577L12.9669 14.4016C13.011 14.3574 13.011 14.2858 12.9669 14.2417L11.7583 13.0331ZM10.3772 16.9912L9.00879 15.6228L6 18.6316V20H7.36845L10.3772 16.9912Z"/>
  </symbol>
  <symbol id="remove" viewBox="0 0 24 24">
    <path fill-rule="evenodd" clip-rule="evenodd" d="M9 4C7.34315 4 6 5.34315 6 7V17C6 18.6569 7.34315 20 9 20H15C16.6569 20 18 18.6569 18 17V10H15C13.3431 10 12 8.65685 12 7V4H9ZM14 5.41421L16.5858 8H15C14.4477 8 14 7.55228 14 7V5.41421ZM4 7C4 4.23858 6.23858 2 9 2H13C13.2652 2 13.5196 2.10536 13.7071 2.29289L19.7071 8.29289C19.8946 8.48043 20 8.73478 20 9V17C20 19.7614 17.7614 22 15 22H9C6.23858 22 4 19.7614 4 17V7ZM9.52513 11.5251C9.91566 11.1345 10.5488 11.1345 10.9393 11.5251L12 12.5857L13.0607 11.5251C13.4512 11.1345 14.0844 11.1345 14.4749 11.5251C14.8654 11.9156 14.8654 12.5488 14.4749 12.9393L13.4142 13.9999L14.4749 15.0606C14.8654 15.4511 14.8654 16.0843 14.4749 16.4748C14.0844 16.8653 13.4512 16.8653 13.0607 16.4748L12 15.4142L10.9393 16.4748C10.5488 16.8653 9.91566 16.8653 9.52513 16.4748C9.13461 16.0843 9.13461 15.4511 9.52513 15.0606L10.5858 13.9999L9.52513 12.9393C9.13461 12.5488 9.13461 11.9156 9.52513 11.5251Z"/>
  </symbol>
  <symbol id="progress" viewBox="0 0 24 24">
    <path fill-rule="evenodd" clip-rule="evenodd" d="M9 4C7.34315 4 6 5.34315 6 7V17C6 18.6569 7.34315 20 9 20H15C16.6569 20 18 18.6569 18 17V10H15C13.3431 10 12 8.65685 12 7V4H9ZM14 5.41421L16.5858 8H15C14.4477 8 14 7.55228 14 7V5.41421ZM4 7C4 4.23858 6.23858 2 9 2H13C13.2652 2 13.5196 2.10536 13.7071 2.29289L19.7071 8.29289C19.8946 8.48043 20 8.73478 20 9V17C20 19.7614 17.7614 22 15 22H9C6.23858 22 4 19.7614 4 17V7ZM12 10.5C12.5523 10.5 13 10.9477 13 11.5V13H14.5C15.0523 13 15.5 13.4477 15.5 14C15.5 14.5523 15.0523 15 14.5 15H13V16.5C13 17.0523 12.5523 17.5 12 17.5C11.4477 17.5 11 17.0523 11 16.5V15H9.5C8.94772 15 8.5 14.5523 8.5 14C8.5 13.4477 8.94772 13 9.5 13H11V11.5C11 10.9477 11.4477 10.5 12 10.5Z"/>
  </symbol>
  <symbol id="done" viewBox="0 0 24 24">
    <path fill-rule="evenodd" clip-rule="evenodd" d="M9 4C7.34315 4 6 5.34315 6 7V17C6 18.6569 7.34315 20 9 20H15C16.6569 20 18 18.6569 18 17V10H15C13.3431 10 12 8.65685 12 7V4H9ZM14 5.41421L16.5858 8H15C14.4477 8 14 7.55228 14 7V5.41421ZM4 7C4 4.23858 6.23858 2 9 2H13C13.2652 2 13.5196 2.10536 13.7071 2.29289L19.7071 8.29289C19.8946 8.48043 20 8.73478 20 9V17C20 19.7614 17.7614 22 15 22H9C6.23858 22 4 19.7614 4 17V7ZM15.2071 12.2929C15.5976 12.6834 15.5976 13.3166 15.2071 13.7071L12.2071 16.7071C11.8166 17.0976 11.1834 17.0976 10.7929 16.7071L9.29289 15.2071C8.90237 14.8166 8.90237 14.1834 9.29289 13.7929C9.68342 13.4024 10.3166 13.4024 10.7071 13.7929L11.5 14.5858L13.7929 12.2929C14.1834 11.9024 14.8166 11.9024 15.2071 12.2929Z"/>
  </symbol>
	<symbol id="move" viewBox="0 0 14 19">
    <path fill-rule="evenodd" clip-rule="evenodd" d="M4.5 2.15375C4.5 3.34325 3.60455 4.3075 2.5 4.3075C1.39545 4.3075 0.5 3.34325 0.5 2.15375C0.5 0.96427 1.39545 0 2.5 0C3.60455 0 4.5 0.96427 4.5 2.15375ZM2.5 11.3075C3.60455 11.3075 4.5 10.3433 4.5 9.15375C4.5 7.96425 3.60455 7 2.5 7C1.39545 7 0.5 7.96425 0.5 9.15375C0.5 10.3433 1.39545 11.3075 2.5 11.3075ZM2.5 18.3075C3.60455 18.3075 4.5 17.3433 4.5 16.1537C4.5 14.9642 3.60455 14 2.5 14C1.39545 14 0.5 14.9642 0.5 16.1537C0.5 17.3433 1.39545 18.3075 2.5 18.3075Z"/>
		<path fill-rule="evenodd" clip-rule="evenodd" d="M13.5 2.15375C13.5 3.34325 12.6045 4.3075 11.5 4.3075C10.3954 4.3075 9.5 3.34325 9.5 2.15375C9.5 0.96427 10.3954 0 11.5 0C12.6045 0 13.5 0.96427 13.5 2.15375ZM11.5 11.3075C12.6045 11.3075 13.5 10.3433 13.5 9.15375C13.5 7.96425 12.6045 7 11.5 7C10.3954 7 9.5 7.96425 9.5 9.15375C9.5 10.3433 10.3954 11.3075 11.5 11.3075ZM11.5 18.3075C12.6045 18.3075 13.5 17.3433 13.5 16.1537C13.5 14.9642 12.6045 14 11.5 14C10.3954 14 9.5 14.9642 9.5 16.1537C9.5 17.3433 10.3954 18.3075 11.5 18.3075Z"/>
  </symbol>
</svg>